<?xml version="1.0" encoding="UTF-8" standalone="no"?>
<!-- Created with Inkscape (http://www.inkscape.org/) -->

<svg
   xmlns:dc="http://purl.org/dc/elements/1.1/"
   xmlns:cc="http://creativecommons.org/ns#"
   xmlns:rdf="http://www.w3.org/1999/02/22-rdf-syntax-ns#"
   xmlns:svg="http://www.w3.org/2000/svg"
   xmlns="http://www.w3.org/2000/svg"
   version="1.1"
   width="229.74648"
   height="23.598047"
   id="svg2">
  <defs
     id="defs4">
    <filter
       color-interpolation-filters="sRGB"
       id="filter4547">
      <feBlend
         in2="BackgroundImage"
         mode="multiply"
         id="feBlend4549" />
    </filter>
    <filter
       color-interpolation-filters="sRGB"
       id="filter4547-6">
      <feBlend
         in2="BackgroundImage"
         mode="multiply"
         id="feBlend4549-3" />
    </filter>
  </defs>
  <metadata
     id="metadata7">
    <rdf:RDF>
      <cc:Work
         rdf:about="">
        <dc:format>image/svg+xml</dc:format>
        <dc:type
           rdf:resource="http://purl.org/dc/dcmitype/StillImage" />
        <dc:title></dc:title>
      </cc:Work>
    </rdf:RDF>
  </metadata>
  <g
     transform="translate(0.17518082,-970.02739)"
     id="layer1"
     style="display:inline;filter:url(#filter4547)">
    <text
       x="19.285713"
       y="26.428572"
       transform="translate(0,932.36218)"
       id="text2985"
       xml:space="preserve"
       style="font-size:40px;font-style:normal;font-weight:normal;line-height:125%;letter-spacing:0px;word-spacing:0px;fill:#000000;fill-opacity:1;stroke:none;font-family:Sans"><tspan
         x="19.285713"
         y="26.428572"
         id="tspan2987" /></text>
    <text
       x="7.8571434"
       y="991.29077"
       id="text2989"
       xml:space="preserve"
       style="font-size:26px;font-style:normal;font-variant:normal;font-weight:normal;font-stretch:normal;text-align:start;line-height:125%;letter-spacing:0px;word-spacing:0px;writing-mode:lr-tb;text-anchor:start;fill:#ffffff;fill-opacity:1;stroke:#ffffff;stroke-width:1;stroke-miterlimit:4;stroke-opacity:1;stroke-dasharray:none;filter:url(#filter4547);font-family:Sans;-inkscape-font-specification:Sans"><tspan
         x="7.8571434"
         y="991.29077"
         id="tspan2991"><tspan
           id="tspan2993"
           style="font-size:26px;font-style:normal;font-variant:normal;font-weight:normal;font-stretch:normal;text-align:start;line-height:125%;writing-mode:lr-tb;text-anchor:start;fill:#ffffff;stroke:#ffffff;stroke-width:1;stroke-miterlimit:4;stroke-opacity:1;stroke-dasharray:none;font-family:Sans;-inkscape-font-specification:Sans"><tspan
             id="tspan2995"
             style="font-size:26px;font-style:normal;font-variant:normal;font-weight:normal;font-stretch:normal;text-align:start;line-height:125%;writing-mode:lr-tb;text-anchor:start;fill:#ffffff;stroke:#ffffff;stroke-width:1;stroke-miterlimit:4;stroke-opacity:1;stroke-dasharray:none;font-family:Sans;-inkscape-font-specification:Sans"><tspan
               id="tspan2997"
               style="font-size:26px;font-style:normal;font-variant:normal;font-weight:normal;font-stretch:normal;text-align:start;line-height:125%;writing-mode:lr-tb;text-anchor:start;fill:#ffffff;stroke:#ffffff;stroke-width:1;stroke-miterlimit:4;stroke-opacity:1;stroke-dasharray:none;font-family:Sans;-inkscape-font-specification:Sans"><tspan
                 id="tspan2999"
                 style="font-size:26px;font-style:normal;font-variant:normal;font-weight:normal;font-stretch:normal;text-align:start;line-height:125%;writing-mode:lr-tb;text-anchor:start;fill:#ffffff;stroke:#ffffff;stroke-width:1;stroke-miterlimit:4;stroke-opacity:1;stroke-dasharray:none;font-family:Sans;-inkscape-font-specification:Sans"><tspan
                   id="tspan3001"
                   style="font-size:26px;font-style:normal;font-variant:normal;font-weight:normal;font-stretch:normal;text-align:start;line-height:125%;writing-mode:lr-tb;text-anchor:start;fill:#ffffff;stroke:#ffffff;stroke-width:1;stroke-miterlimit:4;stroke-opacity:1;stroke-dasharray:none;font-family:Sans;-inkscape-font-specification:Sans"><tspan
                     id="tspan3003"
                     style="font-size:26px;font-style:normal;font-variant:normal;font-weight:normal;font-stretch:normal;text-align:start;line-height:125%;writing-mode:lr-tb;text-anchor:start;fill:#ffffff;stroke:#ffffff;stroke-width:1;stroke-miterlimit:4;stroke-opacity:1;stroke-dasharray:none;font-family:Sans;-inkscape-font-specification:Sans"><tspan
                       id="tspan3005"
                       style="font-size:26px;font-style:normal;font-variant:normal;font-weight:normal;font-stretch:normal;text-align:start;line-height:125%;writing-mode:lr-tb;text-anchor:start;fill:#ffffff;stroke:#ffffff;stroke-width:1;stroke-miterlimit:4;stroke-opacity:1;stroke-dasharray:none;font-family:Sans;-inkscape-font-specification:Sans"><tspan
                         id="tspan3007"
                         style="font-size:26px;font-style:normal;font-variant:normal;font-weight:normal;font-stretch:normal;text-align:start;line-height:125%;writing-mode:lr-tb;text-anchor:start;fill:#ffffff;stroke:#ffffff;stroke-width:1;stroke-miterlimit:4;stroke-opacity:1;stroke-dasharray:none;font-family:Sans;-inkscape-font-specification:Sans"><tspan
                           id="tspan3028"
                           style="font-size:26px;font-style:normal;font-variant:normal;font-weight:normal;font-stretch:normal;text-align:start;line-height:125%;writing-mode:lr-tb;text-anchor:start;fill:#ffffff;stroke:#ffffff;stroke-width:1;stroke-miterlimit:4;stroke-opacity:1;stroke-dasharray:none;font-family:Sans;-inkscape-font-specification:Sans"><tspan
                             id="tspan3030"
                             style="font-size:26px;font-style:normal;font-variant:normal;font-weight:normal;font-stretch:normal;text-align:start;line-height:125%;writing-mode:lr-tb;text-anchor:start;fill:#ffffff;stroke:#ffffff;stroke-width:1;stroke-miterlimit:4;stroke-opacity:1;stroke-dasharray:none;font-family:Sans;-inkscape-font-specification:Sans"><tspan
                               id="tspan3032"
                               style="font-size:26px;font-style:normal;font-variant:normal;font-weight:normal;font-stretch:normal;text-align:start;line-height:125%;writing-mode:lr-tb;text-anchor:start;fill:#ffffff;stroke:#ffffff;stroke-width:1;stroke-miterlimit:4;stroke-opacity:1;stroke-dasharray:none;font-family:Sans;-inkscape-font-specification:Sans"><tspan
                                 id="tspan3034"
                                 style="font-size:26px;font-style:normal;font-variant:normal;font-weight:normal;font-stretch:normal;text-align:start;line-height:125%;writing-mode:lr-tb;text-anchor:start;fill:#ffffff;stroke:#ffffff;stroke-width:1;stroke-miterlimit:4;stroke-opacity:1;stroke-dasharray:none;font-family:Sans;-inkscape-font-specification:Sans"><tspan
                                   id="tspan3036"
                                   style="font-size:26px;font-style:normal;font-variant:normal;font-weight:normal;font-stretch:normal;text-align:start;line-height:125%;writing-mode:lr-tb;text-anchor:start;fill:#ffffff;stroke:#ffffff;stroke-width:1;stroke-miterlimit:4;stroke-opacity:1;stroke-dasharray:none;font-family:Sans;-inkscape-font-specification:Sans">CIRCUS </tspan></tspan></tspan></tspan></tspan></tspan></tspan></tspan></tspan></tspan></tspan></tspan></tspan></tspan></text>
    <text
       x="111.63058"
       y="991.29077"
       id="text3038"
       xml:space="preserve"
       style="font-size:26px;font-style:normal;font-variant:normal;font-weight:normal;font-stretch:normal;text-align:start;line-height:125%;letter-spacing:0px;word-spacing:0px;writing-mode:lr-tb;text-anchor:start;fill:#ffffff;fill-opacity:1;stroke:#ffffff;stroke-width:1;stroke-miterlimit:4;stroke-opacity:1;stroke-dasharray:none;filter:url(#filter4547);font-family:Sans;-inkscape-font-specification:Sans"><tspan
         x="111.63058"
         y="991.29077"
         id="tspan3040"
         style="font-size:26px;font-style:normal;font-variant:normal;font-weight:normal;font-stretch:normal;text-align:start;line-height:125%;writing-mode:lr-tb;text-anchor:start;fill:#ffffff;stroke:#ffffff;stroke-width:1;stroke-miterlimit:4;stroke-opacity:1;stroke-dasharray:none;font-family:Sans;-inkscape-font-specification:Sans">VILLAGE</tspan></text>
  </g>
  <g
     transform="translate(0.17518082,-37.665217)"
     id="layer2"
     style="display:none">
    <g
       transform="matrix(0.135,0,0,0.135,167.57143,18.28571)"
       id="XMLID_3_">
      <path
         d="M 145.334,145.335 C 141.854,162.572 140,181.139 140,200 c 0,18.861 1.854,37.428 5.335,54.665 17.237,3.482 35.804,5.335 54.665,5.335 18.861,0 37.428,-1.853 54.665,-5.335 C 258.146,237.428 260,218.861 260,200 260,181.139 258.146,162.572 254.665,145.335 237.429,141.854 218.861,140 200,140 c -18.861,0 -37.429,1.854 -54.666,5.335 z"
         id="XMLID_855_" />
      <path
         d="m 113.298,154.27 c -6.956,2.559 -13.481,5.434 -19.47,8.604 C 72.646,174.088 60,187.967 60,200 c 0,12.033 12.646,25.912 33.828,37.127 5.989,3.17 12.514,6.046 19.47,8.604 C 111.152,231.18 110,215.845 110,200 c 0,-15.845 1.151,-31.18 3.298,-45.73 z"
         id="XMLID_856_" />
      <path
         d="M 245.731,113.299 C 243.172,106.342 240.297,99.818 237.126,93.828 225.912,72.646 212.033,60 200,60 c -12.033,0 -25.912,12.646 -37.126,33.828 -3.171,5.989 -6.046,12.514 -8.605,19.471 C 168.82,111.152 184.155,110 200,110 c 15.845,0 31.18,1.152 45.731,3.299 z"
         id="XMLID_857_" />
      <path
         d="m 306.171,162.874 c -5.989,-3.171 -12.514,-6.046 -19.47,-8.604 2.148,14.55 3.299,29.886 3.299,45.73 0,15.845 -1.152,31.18 -3.298,45.73 6.955,-2.558 13.48,-5.434 19.47,-8.604 C 327.353,225.912 340,212.033 340,200 c 0,-12.033 -12.647,-25.912 -33.829,-37.126 z"
         id="XMLID_858_" />
      <path
         d="m 154.269,286.701 c 2.559,6.957 5.434,13.481 8.605,19.471 C 174.088,327.353 187.967,340 200,340 c 12.033,0 25.912,-12.647 37.126,-33.828 3.171,-5.989 6.046,-12.514 8.605,-19.471 C 231.179,288.848 215.844,290 200,290 c -15.845,0 -31.18,-1.152 -45.731,-3.299 z"
         id="XMLID_859_" />
      <path
         d="M 200,0 C 89.543,0 0,89.543 0,200 0,310.457 89.543,400 200,400 310.457,400 400,310.457 400,200 400,89.543 310.457,0 200,0 z m 79.551,279.551 C 264.441,333.351 234.489,370 200,370 165.512,370 135.559,333.351 120.449,279.551 66.649,264.441 30,234.488 30,200 30,165.511 66.649,135.559 120.449,120.449 135.559,66.648 165.511,30 200,30 c 34.489,0 64.441,36.648 79.551,90.449 53.8,15.11 90.449,45.063 90.449,79.551 0,34.488 -36.649,64.44 -90.449,79.551 z"
         id="XMLID_860_" />
    </g>
  </g>
</svg>
